<svg xmlns:svg="http://www.w3.org/2000/svg" xmlns="http://www.w3.org/2000/svg" viewBox="0 -256 1792 1792" version="1.1" width="100" height="100"><g transform="matrix(1,0,0,-1,364.47458,1270.2373)"><path d="m768 896q0 106-75 181-75 75-181 75-106 0-181-75-75-75-75-181 0-106 75-181 75-75 181-75 106 0 181 75 75 75 75 181zm256 0q0-109-33-179L627-57q-16-33-47.5-52-31.5-19-67.5-19-36 0-67.5 19Q413-90 398-57L33 717Q0 787 0 896q0 212 150 362 150 150 362 150 212 0 362-150 150-150 150-362z" fill="currentColor"/></g></svg>